MFile 1 5 120
MTrk
0 Meta SeqName "Flower Drum Song"
0 Meta Text "Midi Sequence created by Ying-Da Lee"
0 TimeSig 4/4 24 8
0 KeySig -3 major
0 Tempo 545455
18630 Tempo 6000000
18630 Meta TrkEnd
TrkEnd
MTrk
0 Meta 0x21 00
0 Meta TrkName "Vocal"
0 PrCh ch=1 p=58
0 Par ch=1 c=7 v=105
0 Par ch=1 c=10 v=40
3840 On ch=1 n=58 v=110
3899 On ch=1 n=58 v=0
3900 On ch=1 n=55 v=110
3959 On ch=1 n=55 v=0
3960 On ch=1 n=53 v=110
4019 On ch=1 n=53 v=0
4020 On ch=1 n=55 v=110
4079 On ch=1 n=55 v=0
4080 On ch=1 n=58 v=110
4290 On ch=1 n=58 v=0
4320 On ch=1 n=55 v=110
4379 On ch=1 n=55 v=0
4380 On ch=1 n=58 v=110
4439 On ch=1 n=58 v=0
4440 On ch=1 n=60 v=110
4499 On ch=1 n=60 v=0
4500 On ch=1 n=63 v=110
4559 On ch=1 n=63 v=0
4560 On ch=1 n=58 v=110
4770 On ch=1 n=58 v=0
4800 On ch=1 n=58 v=110
4859 On ch=1 n=58 v=0
4860 On ch=1 n=58 v=110
4960 On ch=1 n=58 v=0
4980 On ch=1 n=63 v=110
5039 On ch=1 n=63 v=0
5040 On ch=1 n=60 v=110
5099 On ch=1 n=60 v=0
5100 On ch=1 n=58 v=110
5159 On ch=1 n=58 v=0
5160 On ch=1 n=55 v=110
5280 On ch=1 n=55 v=0
5280 On ch=1 n=53 v=110
5339 On ch=1 n=53 v=0
5340 On ch=1 n=58 v=110
5360 On ch=1 n=58 v=0
5370 On ch=1 n=58 v=110
5390 On ch=1 n=58 v=0
5400 On ch=1 n=55 v=110
5459 On ch=1 n=55 v=0
5460 On ch=1 n=53 v=110
5519 On ch=1 n=53 v=0
5520 On ch=1 n=51 v=110
5730 On ch=1 n=51 v=0
5760 On ch=1 n=51 v=110
5819 On ch=1 n=51 v=0
5820 On ch=1 n=51 v=110
5920 On ch=1 n=51 v=0
5940 On ch=1 n=48 v=110
5999 On ch=1 n=48 v=0
6000 On ch=1 n=58 v=110
6120 On ch=1 n=58 v=0
6120 On ch=1 n=58 v=110
6179 On ch=1 n=58 v=0
6180 On ch=1 n=55 v=110
6239 On ch=1 n=55 v=0
6240 On ch=1 n=53 v=110
6329 On ch=1 n=53 v=0
6330 On ch=1 n=51 v=110
6359 On ch=1 n=51 v=0
6360 On ch=1 n=53 v=110
6419 On ch=1 n=53 v=0
6420 On ch=1 n=55 v=110
6479 On ch=1 n=55 v=0
6480 On ch=1 n=58 v=110
6690 On ch=1 n=58 v=0
6720 On ch=1 n=58 v=110
6779 On ch=1 n=58 v=0
6780 On ch=1 n=58 v=110
6900 On ch=1 n=58 v=0
6900 On ch=1 n=63 v=110
6959 On ch=1 n=63 v=0
6960 On ch=1 n=60 v=110
7019 On ch=1 n=60 v=0
7020 On ch=1 n=58 v=110
7079 On ch=1 n=58 v=0
7080 On ch=1 n=55 v=110
7200 On ch=1 n=55 v=0
7200 On ch=1 n=53 v=110
7259 On ch=1 n=53 v=0
7260 On ch=1 n=58 v=110
7319 On ch=1 n=58 v=0
7320 On ch=1 n=55 v=110
7379 On ch=1 n=55 v=0
7380 On ch=1 n=53 v=110
7439 On ch=1 n=53 v=0
7440 On ch=1 n=51 v=110
7650 On ch=1 n=51 v=0
7680 On ch=1 n=58 v=110
7780 On ch=1 n=58 v=0
7800 On ch=1 n=58 v=110
7839 On ch=1 n=58 v=0
7840 On ch=1 n=55 v=110
7879 On ch=1 n=55 v=0
7880 On ch=1 n=53 v=110
7919 On ch=1 n=53 v=0
7920 On ch=1 n=51 v=110
7979 On ch=1 n=51 v=0
7980 On ch=1 n=53 v=110
8039 On ch=1 n=53 v=0
8040 On ch=1 n=55 v=110
8099 On ch=1 n=55 v=0
8100 On ch=1 n=58 v=110
8159 On ch=1 n=58 v=0
8160 On ch=1 n=53 v=110
8219 On ch=1 n=53 v=0
8220 On ch=1 n=51 v=110
8279 On ch=1 n=51 v=0
8280 On ch=1 n=48 v=110
8339 On ch=1 n=48 v=0
8340 On ch=1 n=53 v=110
8399 On ch=1 n=53 v=0
8400 On ch=1 n=51 v=110
8610 On ch=1 n=51 v=0
8640 On ch=1 n=57 v=110
8654 On ch=1 n=57 v=0
8655 On ch=1 n=58 v=110
8759 On ch=1 n=58 v=0
8760 On ch=1 n=51 v=110
8819 On ch=1 n=51 v=0
8820 On ch=1 n=51 v=110
8879 On ch=1 n=51 v=0
8880 On ch=1 n=51 v=110
8939 On ch=1 n=51 v=0
8940 On ch=1 n=48 v=110
8999 On ch=1 n=48 v=0
9000 On ch=1 n=51 v=110
9100 On ch=1 n=51 v=0
9120 On ch=1 n=57 v=110
9134 On ch=1 n=57 v=0
9135 On ch=1 n=58 v=110
9239 On ch=1 n=58 v=0
9240 On ch=1 n=51 v=110
9299 On ch=1 n=51 v=0
9300 On ch=1 n=51 v=110
9359 On ch=1 n=51 v=0
9360 On ch=1 n=51 v=110
9419 On ch=1 n=51 v=0
9420 On ch=1 n=48 v=110
9479 On ch=1 n=48 v=0
9480 On ch=1 n=51 v=110
9580 On ch=1 n=51 v=0
9600 On ch=1 n=57 v=110
9614 On ch=1 n=57 v=0
9615 On ch=1 n=58 v=110
9719 On ch=1 n=58 v=0
9720 On ch=1 n=51 v=110
9820 On ch=1 n=51 v=0
9840 On ch=1 n=57 v=110
9854 On ch=1 n=57 v=0
9855 On ch=1 n=58 v=110
9959 On ch=1 n=58 v=0
9960 On ch=1 n=51 v=110
10060 On ch=1 n=51 v=0
10080 On ch=1 n=57 v=110
10094 On ch=1 n=57 v=0
10095 On ch=1 n=58 v=110
10199 On ch=1 n=58 v=0
10200 On ch=1 n=51 v=110
10259 On ch=1 n=51 v=0
10260 On ch=1 n=57 v=110
10274 On ch=1 n=57 v=0
10275 On ch=1 n=58 v=110
10319 On ch=1 n=58 v=0
10320 On ch=1 n=51 v=110
10379 On ch=1 n=51 v=0
10380 On ch=1 n=51 v=110
10439 On ch=1 n=51 v=0
10440 On ch=1 n=48 v=110
10499 On ch=1 n=48 v=0
10500 On ch=1 n=53 v=110
10559 On ch=1 n=53 v=0
10560 On ch=1 n=51 v=110
10619 On ch=1 n=51 v=0
10620 On ch=1 n=51 v=110
10679 On ch=1 n=51 v=0
10680 On ch=1 n=51 v=110
10739 On ch=1 n=51 v=0
10740 On ch=1 n=48 v=110
10799 On ch=1 n=48 v=0
10800 On ch=1 n=51 v=110
10900 On ch=1 n=51 v=0
11520 On ch=1 n=58 v=110
11579 On ch=1 n=58 v=0
11580 On ch=1 n=55 v=110
11639 On ch=1 n=55 v=0
11640 On ch=1 n=53 v=110
11699 On ch=1 n=53 v=0
11700 On ch=1 n=55 v=110
11759 On ch=1 n=55 v=0
11760 On ch=1 n=58 v=110
11970 On ch=1 n=58 v=0
12000 On ch=1 n=55 v=110
12059 On ch=1 n=55 v=0
12060 On ch=1 n=58 v=110
12119 On ch=1 n=58 v=0
12120 On ch=1 n=60 v=110
12179 On ch=1 n=60 v=0
12180 On ch=1 n=63 v=110
12239 On ch=1 n=63 v=0
12240 On ch=1 n=58 v=110
12450 On ch=1 n=58 v=0
12480 On ch=1 n=58 v=110
12539 On ch=1 n=58 v=0
12540 On ch=1 n=58 v=110
12660 On ch=1 n=58 v=0
12660 On ch=1 n=63 v=110
12719 On ch=1 n=63 v=0
12720 On ch=1 n=60 v=110
12779 On ch=1 n=60 v=0
12780 On ch=1 n=58 v=110
12839 On ch=1 n=58 v=0
12840 On ch=1 n=55 v=110
12960 On ch=1 n=55 v=0
12960 On ch=1 n=53 v=110
13019 On ch=1 n=53 v=0
13020 On ch=1 n=58 v=110
13040 On ch=1 n=58 v=0
13050 On ch=1 n=58 v=110
13070 On ch=1 n=58 v=0
13080 On ch=1 n=55 v=110
13139 On ch=1 n=55 v=0
13140 On ch=1 n=53 v=110
13199 On ch=1 n=53 v=0
13200 On ch=1 n=51 v=110
13410 On ch=1 n=51 v=0
13440 On ch=1 n=51 v=110
13499 On ch=1 n=51 v=0
13500 On ch=1 n=51 v=110
13620 On ch=1 n=51 v=0
13620 On ch=1 n=48 v=110
13679 On ch=1 n=48 v=0
13680 On ch=1 n=58 v=110
13800 On ch=1 n=58 v=0
13800 On ch=1 n=58 v=110
13859 On ch=1 n=58 v=0
13860 On ch=1 n=55 v=110
13919 On ch=1 n=55 v=0
13920 On ch=1 n=53 v=110
14009 On ch=1 n=53 v=0
14010 On ch=1 n=51 v=110
14039 On ch=1 n=51 v=0
14040 On ch=1 n=53 v=110
14099 On ch=1 n=53 v=0
14100 On ch=1 n=55 v=110
14159 On ch=1 n=55 v=0
14160 On ch=1 n=58 v=110
14370 On ch=1 n=58 v=0
14400 On ch=1 n=58 v=110
14459 On ch=1 n=58 v=0
14460 On ch=1 n=58 v=110
14580 On ch=1 n=58 v=0
14580 On ch=1 n=63 v=110
14639 On ch=1 n=63 v=0
14640 On ch=1 n=60 v=110
14699 On ch=1 n=60 v=0
14700 On ch=1 n=58 v=110
14759 On ch=1 n=58 v=0
14760 On ch=1 n=55 v=110
14880 On ch=1 n=55 v=0
14880 On ch=1 n=53 v=110
14939 On ch=1 n=53 v=0
14940 On ch=1 n=58 v=110
14999 On ch=1 n=58 v=0
15000 On ch=1 n=55 v=110
15059 On ch=1 n=55 v=0
15060 On ch=1 n=53 v=110
15119 On ch=1 n=53 v=0
15120 On ch=1 n=51 v=110
15330 On ch=1 n=51 v=0
15360 On ch=1 n=58 v=110
15460 On ch=1 n=58 v=0
15480 On ch=1 n=58 v=110
15519 On ch=1 n=58 v=0
15520 On ch=1 n=55 v=110
15559 On ch=1 n=55 v=0
15560 On ch=1 n=53 v=110
15599 On ch=1 n=53 v=0
15600 On ch=1 n=51 v=110
15659 On ch=1 n=51 v=0
15660 On ch=1 n=53 v=110
15719 On ch=1 n=53 v=0
15720 On ch=1 n=55 v=110
15779 On ch=1 n=55 v=0
15780 On ch=1 n=58 v=110
15839 On ch=1 n=58 v=0
15840 On ch=1 n=53 v=110
15899 On ch=1 n=53 v=0
15900 On ch=1 n=51 v=110
15959 On ch=1 n=51 v=0
15960 On ch=1 n=48 v=110
16019 On ch=1 n=48 v=0
16020 On ch=1 n=53 v=110
16079 On ch=1 n=53 v=0
16080 On ch=1 n=51 v=110
16290 On ch=1 n=51 v=0
16320 On ch=1 n=57 v=110
16334 On ch=1 n=57 v=0
16335 On ch=1 n=58 v=110
16439 On ch=1 n=58 v=0
16440 On ch=1 n=51 v=110
16499 On ch=1 n=51 v=0
16500 On ch=1 n=51 v=110
16559 On ch=1 n=51 v=0
16560 On ch=1 n=51 v=110
16619 On ch=1 n=51 v=0
16620 On ch=1 n=48 v=110
16679 On ch=1 n=48 v=0
16680 On ch=1 n=51 v=110
16780 On ch=1 n=51 v=0
16800 On ch=1 n=57 v=110
16814 On ch=1 n=57 v=0
16815 On ch=1 n=58 v=110
16919 On ch=1 n=58 v=0
16920 On ch=1 n=51 v=110
16979 On ch=1 n=51 v=0
16980 On ch=1 n=51 v=110
17039 On ch=1 n=51 v=0
17040 On ch=1 n=51 v=110
17099 On ch=1 n=51 v=0
17100 On ch=1 n=48 v=110
17159 On ch=1 n=48 v=0
17160 On ch=1 n=51 v=110
17260 On ch=1 n=51 v=0
17280 On ch=1 n=57 v=110
17294 On ch=1 n=57 v=0
17295 On ch=1 n=58 v=110
17399 On ch=1 n=58 v=0
17400 On ch=1 n=51 v=110
17500 On ch=1 n=51 v=0
17520 On ch=1 n=57 v=110
17534 On ch=1 n=57 v=0
17535 On ch=1 n=58 v=110
17639 On ch=1 n=58 v=0
17640 On ch=1 n=51 v=110
17740 On ch=1 n=51 v=0
17760 On ch=1 n=57 v=110
17774 On ch=1 n=57 v=0
17775 On ch=1 n=58 v=110
17879 On ch=1 n=58 v=0
17880 On ch=1 n=51 v=110
17939 On ch=1 n=51 v=0
17940 On ch=1 n=57 v=110
17954 On ch=1 n=57 v=0
17955 On ch=1 n=58 v=110
17999 On ch=1 n=58 v=0
18000 On ch=1 n=51 v=110
18059 On ch=1 n=51 v=0
18060 On ch=1 n=51 v=110
18119 On ch=1 n=51 v=0
18120 On ch=1 n=48 v=110
18179 On ch=1 n=48 v=0
18180 On ch=1 n=53 v=110
18239 On ch=1 n=53 v=0
18240 On ch=1 n=51 v=110
18299 On ch=1 n=51 v=0
18300 On ch=1 n=51 v=110
18359 On ch=1 n=51 v=0
18360 On ch=1 n=51 v=110
18419 On ch=1 n=51 v=0
18420 On ch=1 n=48 v=110
18479 On ch=1 n=48 v=0
18480 On ch=1 n=51 v=110
18580 On ch=1 n=51 v=0
18580 Meta TrkEnd
TrkEnd
MTrk
0 Meta 0x21 00
0 Meta TrkName "Accompaniment"
0 PrCh ch=2 p=0
0 Par ch=2 c=7 v=60
0 Par ch=2 c=10 v=80
960 On ch=2 n=81 v=110
960 On ch=2 n=82 v=110
1019 On ch=2 n=82 v=0
1019 On ch=2 n=81 v=0
1020 On ch=2 n=72 v=110
1020 On ch=2 n=75 v=110
1049 On ch=2 n=75 v=0
1049 On ch=2 n=72 v=0
1050 On ch=2 n=81 v=110
1050 On ch=2 n=82 v=110
1079 On ch=2 n=82 v=0
1079 On ch=2 n=81 v=0
1080 On ch=2 n=72 v=110
1080 On ch=2 n=75 v=110
1139 On ch=2 n=75 v=0
1139 On ch=2 n=72 v=0
1140 On ch=2 n=69 v=110
1140 On ch=2 n=70 v=110
1199 On ch=2 n=70 v=0
1199 On ch=2 n=69 v=0
1200 On ch=2 n=60 v=110
1200 On ch=2 n=63 v=110
1259 On ch=2 n=63 v=0
1259 On ch=2 n=60 v=0
1260 On ch=2 n=57 v=110
1260 On ch=2 n=58 v=110
1319 On ch=2 n=58 v=0
1319 On ch=2 n=57 v=0
1320 On ch=2 n=39 v=110
1320 On ch=2 n=51 v=110
1420 On ch=2 n=51 v=0
1420 On ch=2 n=39 v=0
1440 On ch=2 n=81 v=110
1440 On ch=2 n=82 v=110
1499 On ch=2 n=82 v=0
1499 On ch=2 n=81 v=0
1500 On ch=2 n=72 v=110
1500 On ch=2 n=75 v=110
1529 On ch=2 n=75 v=0
1529 On ch=2 n=72 v=0
1530 On ch=2 n=81 v=110
1530 On ch=2 n=82 v=110
1559 On ch=2 n=82 v=0
1559 On ch=2 n=81 v=0
1560 On ch=2 n=72 v=110
1560 On ch=2 n=75 v=110
1619 On ch=2 n=75 v=0
1619 On ch=2 n=72 v=0
1620 On ch=2 n=69 v=110
1620 On ch=2 n=70 v=110
1679 On ch=2 n=70 v=0
1679 On ch=2 n=69 v=0
1680 On ch=2 n=60 v=110
1680 On ch=2 n=63 v=110
1739 On ch=2 n=63 v=0
1739 On ch=2 n=60 v=0
1740 On ch=2 n=57 v=110
1740 On ch=2 n=58 v=110
1799 On ch=2 n=58 v=0
1799 On ch=2 n=57 v=0
1800 On ch=2 n=39 v=110
1800 On ch=2 n=51 v=110
1900 On ch=2 n=51 v=0
1900 On ch=2 n=39 v=0
1920 On ch=2 n=81 v=110
1920 On ch=2 n=82 v=110
1979 On ch=2 n=82 v=0
1979 On ch=2 n=81 v=0
1980 On ch=2 n=72 v=110
1980 On ch=2 n=75 v=110
2039 On ch=2 n=75 v=0
2039 On ch=2 n=72 v=0
2040 On ch=2 n=69 v=110
2040 On ch=2 n=70 v=110
2099 On ch=2 n=70 v=0
2099 On ch=2 n=69 v=0
2100 On ch=2 n=60 v=110
2100 On ch=2 n=63 v=110
2159 On ch=2 n=63 v=0
2159 On ch=2 n=60 v=0
2160 On ch=2 n=81 v=110
2160 On ch=2 n=82 v=110
2219 On ch=2 n=82 v=0
2219 On ch=2 n=81 v=0
2220 On ch=2 n=72 v=110
2220 On ch=2 n=75 v=110
2279 On ch=2 n=75 v=0
2279 On ch=2 n=72 v=0
2280 On ch=2 n=69 v=110
2280 On ch=2 n=70 v=110
2339 On ch=2 n=70 v=0
2339 On ch=2 n=69 v=0
2340 On ch=2 n=60 v=110
2340 On ch=2 n=63 v=110
2399 On ch=2 n=63 v=0
2399 On ch=2 n=60 v=0
2400 On ch=2 n=81 v=110
2400 On ch=2 n=82 v=110
2459 On ch=2 n=82 v=0
2459 On ch=2 n=81 v=0
2460 On ch=2 n=72 v=110
2460 On ch=2 n=75 v=110
2489 On ch=2 n=75 v=0
2489 On ch=2 n=72 v=0
2490 On ch=2 n=81 v=110
2490 On ch=2 n=82 v=110
2519 On ch=2 n=82 v=0
2519 On ch=2 n=81 v=0
2520 On ch=2 n=72 v=110
2520 On ch=2 n=75 v=110
2579 On ch=2 n=75 v=0
2579 On ch=2 n=72 v=0
2580 On ch=2 n=81 v=110
2580 On ch=2 n=82 v=110
2639 On ch=2 n=82 v=0
2639 On ch=2 n=81 v=0
2640 On ch=2 n=72 v=110
2640 On ch=2 n=75 v=110
2699 On ch=2 n=75 v=0
2699 On ch=2 n=72 v=0
2700 On ch=2 n=72 v=110
2700 On ch=2 n=75 v=110
2759 On ch=2 n=75 v=0
2759 On ch=2 n=72 v=0
2760 On ch=2 n=60 v=110
2760 On ch=2 n=63 v=110
2819 On ch=2 n=63 v=0
2819 On ch=2 n=60 v=0
2820 On ch=2 n=72 v=110
2820 On ch=2 n=75 v=110
2879 On ch=2 n=75 v=0
2879 On ch=2 n=72 v=0
2880 On ch=2 n=60 v=110
2880 On ch=2 n=63 v=110
2939 On ch=2 n=63 v=0
2939 On ch=2 n=60 v=0
2940 On ch=2 n=69 v=110
2940 On ch=2 n=70 v=110
2999 On ch=2 n=70 v=0
2999 On ch=2 n=69 v=0
3000 On ch=2 n=60 v=110
3000 On ch=2 n=63 v=110
3059 On ch=2 n=63 v=0
3059 On ch=2 n=60 v=0
3060 On ch=2 n=57 v=110
3060 On ch=2 n=58 v=110
3119 On ch=2 n=58 v=0
3119 On ch=2 n=57 v=0
3120 On ch=2 n=39 v=110
3120 On ch=2 n=51 v=110
3220 On ch=2 n=51 v=0
3220 On ch=2 n=39 v=0
3240 On ch=2 n=39 v=110
3299 On ch=2 n=39 v=0
3360 On ch=2 n=39 v=110
3360 On ch=2 n=46 v=110
3419 On ch=2 n=46 v=0
3419 On ch=2 n=39 v=0
3420 On ch=2 n=55 v=110
3420 On ch=2 n=57 v=110
3420 On ch=2 n=58 v=110
3479 On ch=2 n=58 v=0
3479 On ch=2 n=57 v=0
3479 On ch=2 n=55 v=0
3480 On ch=2 n=36 v=110
3480 On ch=2 n=43 v=110
3539 On ch=2 n=43 v=0
3539 On ch=2 n=36 v=0
3540 On ch=2 n=55 v=110
3540 On ch=2 n=57 v=110
3540 On ch=2 n=58 v=110
3599 On ch=2 n=58 v=0
3599 On ch=2 n=57 v=0
3599 On ch=2 n=55 v=0
3600 On ch=2 n=39 v=110
3600 On ch=2 n=46 v=110
3659 On ch=2 n=46 v=0
3659 On ch=2 n=39 v=0
3660 On ch=2 n=55 v=110
3660 On ch=2 n=57 v=110
3660 On ch=2 n=58 v=110
3719 On ch=2 n=58 v=0
3719 On ch=2 n=57 v=0
3719 On ch=2 n=55 v=0
3720 On ch=2 n=36 v=110
3720 On ch=2 n=43 v=110
3779 On ch=2 n=43 v=0
3779 On ch=2 n=36 v=0
3780 On ch=2 n=55 v=110
3780 On ch=2 n=57 v=110
3780 On ch=2 n=58 v=110
3839 On ch=2 n=58 v=0
3839 On ch=2 n=57 v=0
3839 On ch=2 n=55 v=0
3840 On ch=2 n=39 v=110
3840 On ch=2 n=46 v=110
3899 On ch=2 n=46 v=0
3899 On ch=2 n=39 v=0
3900 On ch=2 n=55 v=110
3900 On ch=2 n=57 v=110
3900 On ch=2 n=58 v=110
3959 On ch=2 n=58 v=0
3959 On ch=2 n=57 v=0
3959 On ch=2 n=55 v=0
3960 On ch=2 n=36 v=110
3960 On ch=2 n=43 v=110
4019 On ch=2 n=43 v=0
4019 On ch=2 n=36 v=0
4020 On ch=2 n=55 v=110
4020 On ch=2 n=57 v=110
4020 On ch=2 n=58 v=110
4079 On ch=2 n=58 v=0
4079 On ch=2 n=57 v=0
4079 On ch=2 n=55 v=0
4080 On ch=2 n=39 v=110
4080 On ch=2 n=46 v=110
4139 On ch=2 n=46 v=0
4139 On ch=2 n=39 v=0
4140 On ch=2 n=55 v=110
4140 On ch=2 n=57 v=110
4140 On ch=2 n=58 v=110
4199 On ch=2 n=58 v=0
4199 On ch=2 n=57 v=0
4199 On ch=2 n=55 v=0
4200 On ch=2 n=36 v=110
4200 On ch=2 n=43 v=110
4259 On ch=2 n=43 v=0
4259 On ch=2 n=36 v=0
4260 On ch=2 n=55 v=110
4260 On ch=2 n=57 v=110
4260 On ch=2 n=58 v=110
4319 On ch=2 n=58 v=0
4319 On ch=2 n=57 v=0
4319 On ch=2 n=55 v=0
4320 On ch=2 n=39 v=110
4320 On ch=2 n=46 v=110
4379 On ch=2 n=46 v=0
4379 On ch=2 n=39 v=0
4380 On ch=2 n=55 v=110
4380 On ch=2 n=57 v=110
4380 On ch=2 n=58 v=110
4439 On ch=2 n=58 v=0
4439 On ch=2 n=57 v=0
4439 On ch=2 n=55 v=0
4440 On ch=2 n=36 v=110
4440 On ch=2 n=43 v=110
4499 On ch=2 n=43 v=0
4499 On ch=2 n=36 v=0
4500 On ch=2 n=55 v=110
4500 On ch=2 n=57 v=110
4500 On ch=2 n=58 v=110
4559 On ch=2 n=58 v=0
4559 On ch=2 n=57 v=0
4559 On ch=2 n=55 v=0
4560 On ch=2 n=39 v=110
4560 On ch=2 n=46 v=110
4619 On ch=2 n=46 v=0
4619 On ch=2 n=39 v=0
4620 On ch=2 n=55 v=110
4620 On ch=2 n=57 v=110
4620 On ch=2 n=58 v=110
4679 On ch=2 n=58 v=0
4679 On ch=2 n=57 v=0
4679 On ch=2 n=55 v=0
4680 On ch=2 n=36 v=110
4680 On ch=2 n=43 v=110
4739 On ch=2 n=43 v=0
4739 On ch=2 n=36 v=0
4740 On ch=2 n=55 v=110
4740 On ch=2 n=57 v=110
4740 On ch=2 n=58 v=110
4799 On ch=2 n=58 v=0
4799 On ch=2 n=57 v=0
4799 On ch=2 n=55 v=0
4800 On ch=2 n=39 v=110
4800 On ch=2 n=46 v=110
4859 On ch=2 n=46 v=0
4859 On ch=2 n=39 v=0
4860 On ch=2 n=55 v=110
4860 On ch=2 n=57 v=110
4860 On ch=2 n=58 v=110
4919 On ch=2 n=58 v=0
4919 On ch=2 n=57 v=0
4919 On ch=2 n=55 v=0
4920 On ch=2 n=36 v=110
4920 On ch=2 n=43 v=110
4979 On ch=2 n=43 v=0
4979 On ch=2 n=36 v=0
4980 On ch=2 n=55 v=110
4980 On ch=2 n=57 v=110
4980 On ch=2 n=58 v=110
5039 On ch=2 n=58 v=0
5039 On ch=2 n=57 v=0
5039 On ch=2 n=55 v=0
5040 On ch=2 n=39 v=110
5040 On ch=2 n=46 v=110
5099 On ch=2 n=46 v=0
5099 On ch=2 n=39 v=0
5100 On ch=2 n=55 v=110
5100 On ch=2 n=57 v=110
5100 On ch=2 n=58 v=110
5159 On ch=2 n=58 v=0
5159 On ch=2 n=57 v=0
5159 On ch=2 n=55 v=0
5160 On ch=2 n=36 v=110
5160 On ch=2 n=43 v=110
5219 On ch=2 n=43 v=0
5219 On ch=2 n=36 v=0
5220 On ch=2 n=55 v=110
5220 On ch=2 n=57 v=110
5220 On ch=2 n=58 v=110
5279 On ch=2 n=58 v=0
5279 On ch=2 n=57 v=0
5279 On ch=2 n=55 v=0
5280 On ch=2 n=39 v=110
5280 On ch=2 n=46 v=110
5339 On ch=2 n=46 v=0
5339 On ch=2 n=39 v=0
5340 On ch=2 n=55 v=110
5340 On ch=2 n=57 v=110
5340 On ch=2 n=58 v=110
5399 On ch=2 n=58 v=0
5399 On ch=2 n=57 v=0
5399 On ch=2 n=55 v=0
5400 On ch=2 n=36 v=110
5400 On ch=2 n=43 v=110
5459 On ch=2 n=43 v=0
5459 On ch=2 n=36 v=0
5460 On ch=2 n=55 v=110
5460 On ch=2 n=57 v=110
5460 On ch=2 n=58 v=110
5519 On ch=2 n=58 v=0
5519 On ch=2 n=57 v=0
5519 On ch=2 n=55 v=0
5520 On ch=2 n=39 v=110
5520 On ch=2 n=46 v=110
5579 On ch=2 n=46 v=0
5579 On ch=2 n=39 v=0
5580 On ch=2 n=55 v=110
5609 On ch=2 n=55 v=0
5610 On ch=2 n=58 v=110
5639 On ch=2 n=58 v=0
5640 On ch=2 n=55 v=110
5699 On ch=2 n=55 v=0
5700 On ch=2 n=53 v=110
5759 On ch=2 n=53 v=0
5760 On ch=2 n=63 v=110
5820 On ch=2 n=63 v=110
5820 On ch=2 n=67 v=110
5820 On ch=2 n=70 v=110
5860 On ch=2 n=63 v=0
5879 On ch=2 n=63 v=0
5879 On ch=2 n=67 v=0
5879 On ch=2 n=70 v=0
5880 On ch=2 n=62 v=110
5940 On ch=2 n=63 v=110
5940 On ch=2 n=67 v=110
5940 On ch=2 n=70 v=110
5980 On ch=2 n=62 v=0
5999 On ch=2 n=63 v=0
5999 On ch=2 n=67 v=0
5999 On ch=2 n=70 v=0
6000 On ch=2 n=61 v=110
6060 On ch=2 n=63 v=110
6060 On ch=2 n=67 v=110
6060 On ch=2 n=70 v=110
6100 On ch=2 n=61 v=0
6119 On ch=2 n=63 v=0
6119 On ch=2 n=67 v=0
6119 On ch=2 n=70 v=0
6120 On ch=2 n=60 v=110
6180 On ch=2 n=63 v=110
6180 On ch=2 n=67 v=110
6180 On ch=2 n=70 v=110
6220 On ch=2 n=60 v=0
6239 On ch=2 n=63 v=0
6239 On ch=2 n=67 v=0
6239 On ch=2 n=70 v=0
6240 On ch=2 n=59 v=110
6300 On ch=2 n=63 v=110
6300 On ch=2 n=67 v=110
6300 On ch=2 n=70 v=110
6340 On ch=2 n=59 v=0
6359 On ch=2 n=63 v=0
6359 On ch=2 n=67 v=0
6359 On ch=2 n=70 v=0
6360 On ch=2 n=58 v=110
6420 On ch=2 n=63 v=110
6420 On ch=2 n=67 v=110
6420 On ch=2 n=70 v=110
6460 On ch=2 n=58 v=0
6479 On ch=2 n=63 v=0
6479 On ch=2 n=67 v=0
6479 On ch=2 n=70 v=0
6480 On ch=2 n=55 v=110
6539 On ch=2 n=55 v=0
6540 On ch=2 n=63 v=110
6540 On ch=2 n=67 v=110
6540 On ch=2 n=70 v=110
6540 On ch=2 n=53 v=110
6599 On ch=2 n=53 v=0
6599 On ch=2 n=63 v=0
6599 On ch=2 n=67 v=0
6599 On ch=2 n=70 v=0
6600 On ch=2 n=63 v=110
6600 On ch=2 n=67 v=110
6600 On ch=2 n=70 v=110
6600 On ch=2 n=51 v=110
6700 On ch=2 n=51 v=0
6700 On ch=2 n=63 v=0
6700 On ch=2 n=67 v=0
6700 On ch=2 n=70 v=0
6720 On ch=2 n=51 v=110
6780 On ch=2 n=51 v=110
6780 On ch=2 n=55 v=110
6780 On ch=2 n=58 v=110
6820 On ch=2 n=51 v=0
6839 On ch=2 n=51 v=0
6839 On ch=2 n=55 v=0
6839 On ch=2 n=58 v=0
6840 On ch=2 n=50 v=110
6900 On ch=2 n=51 v=110
6900 On ch=2 n=55 v=110
6900 On ch=2 n=58 v=110
6940 On ch=2 n=50 v=0
6959 On ch=2 n=51 v=0
6959 On ch=2 n=55 v=0
6959 On ch=2 n=58 v=0
6960 On ch=2 n=49 v=110
7020 On ch=2 n=51 v=110
7020 On ch=2 n=55 v=110
7020 On ch=2 n=58 v=110
7060 On ch=2 n=49 v=0
7079 On ch=2 n=51 v=0
7079 On ch=2 n=55 v=0
7079 On ch=2 n=58 v=0
7080 On ch=2 n=48 v=110
7140 On ch=2 n=51 v=110
7140 On ch=2 n=55 v=110
7140 On ch=2 n=58 v=110
7180 On ch=2 n=48 v=0
7199 On ch=2 n=51 v=0
7199 On ch=2 n=55 v=0
7199 On ch=2 n=58 v=0
7200 On ch=2 n=47 v=110
7259 On ch=2 n=47 v=0
7260 On ch=2 n=51 v=110
7260 On ch=2 n=55 v=110
7260 On ch=2 n=58 v=110
7260 On ch=2 n=46 v=110
7319 On ch=2 n=46 v=0
7319 On ch=2 n=51 v=0
7319 On ch=2 n=55 v=0
7319 On ch=2 n=58 v=0
7320 On ch=2 n=43 v=110
7379 On ch=2 n=43 v=0
7380 On ch=2 n=51 v=110
7380 On ch=2 n=55 v=110
7380 On ch=2 n=58 v=110
7380 On ch=2 n=41 v=110
7439 On ch=2 n=41 v=0
7439 On ch=2 n=51 v=0
7439 On ch=2 n=55 v=0
7439 On ch=2 n=58 v=0
7440 On ch=2 n=51 v=110
7440 On ch=2 n=55 v=110
7440 On ch=2 n=58 v=110
7440 On ch=2 n=39 v=110
7540 On ch=2 n=39 v=0
7540 On ch=2 n=51 v=0
7540 On ch=2 n=55 v=0
7540 On ch=2 n=58 v=0
7560 On ch=2 n=31 v=110
7619 On ch=2 n=31 v=0
7680 On ch=2 n=63 v=110
7680 On ch=2 n=51 v=110
7739 On ch=2 n=51 v=0
7739 On ch=2 n=63 v=0
7740 On ch=2 n=65 v=110
7740 On ch=2 n=53 v=110
7769 On ch=2 n=53 v=0
7769 On ch=2 n=65 v=0
7770 On ch=2 n=67 v=110
7770 On ch=2 n=55 v=110
7799 On ch=2 n=55 v=0
7799 On ch=2 n=67 v=0
7800 On ch=2 n=70 v=110
7800 On ch=2 n=58 v=110
7859 On ch=2 n=58 v=0
7859 On ch=2 n=70 v=0
7860 On ch=2 n=67 v=110
7860 On ch=2 n=55 v=110
7889 On ch=2 n=55 v=0
7889 On ch=2 n=67 v=0
7890 On ch=2 n=65 v=110
7890 On ch=2 n=53 v=110
7919 On ch=2 n=53 v=0
7919 On ch=2 n=65 v=0
7920 On ch=2 n=63 v=110
7920 On ch=2 n=51 v=110
7979 On ch=2 n=51 v=0
7979 On ch=2 n=63 v=0
7980 On ch=2 n=65 v=110
7980 On ch=2 n=53 v=110
8039 On ch=2 n=53 v=0
8039 On ch=2 n=65 v=0
8040 On ch=2 n=67 v=110
8040 On ch=2 n=55 v=110
8099 On ch=2 n=55 v=0
8099 On ch=2 n=67 v=0
8100 On ch=2 n=70 v=110
8100 On ch=2 n=58 v=110
8159 On ch=2 n=58 v=0
8159 On ch=2 n=70 v=0
8160 On ch=2 n=60 v=110
8160 On ch=2 n=63 v=110
8160 On ch=2 n=65 v=110
8160 On ch=2 n=56 v=110
8260 On ch=2 n=56 v=0
8260 On ch=2 n=60 v=0
8260 On ch=2 n=63 v=0
8260 On ch=2 n=65 v=0
8280 On ch=2 n=60 v=110
8280 On ch=2 n=63 v=110
8280 On ch=2 n=65 v=110
8280 On ch=2 n=56 v=110
8380 On ch=2 n=56 v=0
8380 On ch=2 n=60 v=0
8380 On ch=2 n=63 v=0
8380 On ch=2 n=65 v=0
8400 On ch=2 n=58 v=110
8400 On ch=2 n=63 v=110
8400 On ch=2 n=55 v=110
8500 On ch=2 n=55 v=0
8500 On ch=2 n=63 v=0
8500 On ch=2 n=58 v=0
8520 On ch=2 n=39 v=110
8520 On ch=2 n=51 v=110
8620 On ch=2 n=51 v=0
8620 On ch=2 n=39 v=0
8640 On ch=2 n=81 v=110
8640 On ch=2 n=82 v=110
8699 On ch=2 n=82 v=0
8699 On ch=2 n=81 v=0
8700 On ch=2 n=72 v=110
8700 On ch=2 n=75 v=110
8729 On ch=2 n=75 v=0
8729 On ch=2 n=72 v=0
8730 On ch=2 n=81 v=110
8730 On ch=2 n=82 v=110
8759 On ch=2 n=82 v=0
8759 On ch=2 n=81 v=0
8760 On ch=2 n=72 v=110
8760 On ch=2 n=75 v=110
8819 On ch=2 n=75 v=0
8819 On ch=2 n=72 v=0
8820 On ch=2 n=69 v=110
8820 On ch=2 n=70 v=110
8879 On ch=2 n=70 v=0
8879 On ch=2 n=69 v=0
8880 On ch=2 n=60 v=110
8880 On ch=2 n=63 v=110
8939 On ch=2 n=63 v=0
8939 On ch=2 n=60 v=0
8940 On ch=2 n=57 v=110
8940 On ch=2 n=58 v=110
8999 On ch=2 n=58 v=0
8999 On ch=2 n=57 v=0
9000 On ch=2 n=39 v=110
9000 On ch=2 n=51 v=110
9100 On ch=2 n=51 v=0
9100 On ch=2 n=39 v=0
9120 On ch=2 n=81 v=110
9120 On ch=2 n=82 v=110
9179 On ch=2 n=82 v=0
9179 On ch=2 n=81 v=0
9180 On ch=2 n=72 v=110
9180 On ch=2 n=75 v=110
9209 On ch=2 n=75 v=0
9209 On ch=2 n=72 v=0
9210 On ch=2 n=81 v=110
9210 On ch=2 n=82 v=110
9239 On ch=2 n=82 v=0
9239 On ch=2 n=81 v=0
9240 On ch=2 n=72 v=110
9240 On ch=2 n=75 v=110
9299 On ch=2 n=75 v=0
9299 On ch=2 n=72 v=0
9300 On ch=2 n=69 v=110
9300 On ch=2 n=70 v=110
9359 On ch=2 n=70 v=0
9359 On ch=2 n=69 v=0
9360 On ch=2 n=60 v=110
9360 On ch=2 n=63 v=110
9419 On ch=2 n=63 v=0
9419 On ch=2 n=60 v=0
9420 On ch=2 n=57 v=110
9420 On ch=2 n=58 v=110
9479 On ch=2 n=58 v=0
9479 On ch=2 n=57 v=0
9480 On ch=2 n=39 v=110
9480 On ch=2 n=51 v=110
9580 On ch=2 n=51 v=0
9580 On ch=2 n=39 v=0
9600 On ch=2 n=81 v=110
9600 On ch=2 n=82 v=110
9659 On ch=2 n=82 v=0
9659 On ch=2 n=81 v=0
9660 On ch=2 n=72 v=110
9660 On ch=2 n=75 v=110
9719 On ch=2 n=75 v=0
9719 On ch=2 n=72 v=0
9720 On ch=2 n=69 v=110
9720 On ch=2 n=70 v=110
9779 On ch=2 n=70 v=0
9779 On ch=2 n=69 v=0
9780 On ch=2 n=60 v=110
9780 On ch=2 n=63 v=110
9839 On ch=2 n=63 v=0
9839 On ch=2 n=60 v=0
9840 On ch=2 n=81 v=110
9840 On ch=2 n=82 v=110
9899 On ch=2 n=82 v=0
9899 On ch=2 n=81 v=0
9900 On ch=2 n=72 v=110
9900 On ch=2 n=75 v=110
9959 On ch=2 n=75 v=0
9959 On ch=2 n=72 v=0
9960 On ch=2 n=69 v=110
9960 On ch=2 n=70 v=110
10019 On ch=2 n=70 v=0
10019 On ch=2 n=69 v=0
10020 On ch=2 n=60 v=110
10020 On ch=2 n=63 v=110
10079 On ch=2 n=63 v=0
10079 On ch=2 n=60 v=0
10080 On ch=2 n=81 v=110
10080 On ch=2 n=82 v=110
10139 On ch=2 n=82 v=0
10139 On ch=2 n=81 v=0
10140 On ch=2 n=72 v=110
10140 On ch=2 n=75 v=110
10169 On ch=2 n=75 v=0
10169 On ch=2 n=72 v=0
10170 On ch=2 n=81 v=110
10170 On ch=2 n=82 v=110
10199 On ch=2 n=82 v=0
10199 On ch=2 n=81 v=0
10200 On ch=2 n=72 v=110
10200 On ch=2 n=75 v=110
10259 On ch=2 n=75 v=0
10259 On ch=2 n=72 v=0
10260 On ch=2 n=81 v=110
10260 On ch=2 n=82 v=110
10319 On ch=2 n=82 v=0
10319 On ch=2 n=81 v=0
10320 On ch=2 n=72 v=110
10320 On ch=2 n=75 v=110
10379 On ch=2 n=75 v=0
10379 On ch=2 n=72 v=0
10380 On ch=2 n=72 v=110
10380 On ch=2 n=75 v=110
10439 On ch=2 n=75 v=0
10439 On ch=2 n=72 v=0
10440 On ch=2 n=60 v=110
10440 On ch=2 n=63 v=110
10499 On ch=2 n=63 v=0
10499 On ch=2 n=60 v=0
10500 On ch=2 n=72 v=110
10500 On ch=2 n=75 v=110
10559 On ch=2 n=75 v=0
10559 On ch=2 n=72 v=0
10560 On ch=2 n=60 v=110
10560 On ch=2 n=63 v=110
10619 On ch=2 n=63 v=0
10619 On ch=2 n=60 v=0
10620 On ch=2 n=69 v=110
10620 On ch=2 n=70 v=110
10679 On ch=2 n=70 v=0
10679 On ch=2 n=69 v=0
10680 On ch=2 n=60 v=110
10680 On ch=2 n=63 v=110
10739 On ch=2 n=63 v=0
10739 On ch=2 n=60 v=0
10740 On ch=2 n=57 v=110
10740 On ch=2 n=58 v=110
10799 On ch=2 n=58 v=0
10799 On ch=2 n=57 v=0
10800 On ch=2 n=39 v=110
10800 On ch=2 n=51 v=110
10900 On ch=2 n=51 v=0
10900 On ch=2 n=39 v=0
10920 On ch=2 n=39 v=110
10979 On ch=2 n=39 v=0
11040 On ch=2 n=39 v=110
11040 On ch=2 n=46 v=110
11099 On ch=2 n=46 v=0
11099 On ch=2 n=39 v=0
11100 On ch=2 n=75 v=110
11100 On ch=2 n=77 v=110
11100 On ch=2 n=79 v=110
11159 On ch=2 n=79 v=0
11159 On ch=2 n=77 v=0
11159 On ch=2 n=75 v=0
11160 On ch=2 n=36 v=110
11160 On ch=2 n=43 v=110
11219 On ch=2 n=43 v=0
11219 On ch=2 n=36 v=0
11220 On ch=2 n=75 v=110
11220 On ch=2 n=77 v=110
11220 On ch=2 n=79 v=110
11279 On ch=2 n=79 v=0
11279 On ch=2 n=77 v=0
11279 On ch=2 n=75 v=0
11280 On ch=2 n=39 v=110
11280 On ch=2 n=46 v=110
11339 On ch=2 n=46 v=0
11339 On ch=2 n=39 v=0
11340 On ch=2 n=75 v=110
11340 On ch=2 n=77 v=110
11340 On ch=2 n=79 v=110
11399 On ch=2 n=79 v=0
11399 On ch=2 n=77 v=0
11399 On ch=2 n=75 v=0
11400 On ch=2 n=36 v=110
11400 On ch=2 n=43 v=110
11459 On ch=2 n=43 v=0
11459 On ch=2 n=36 v=0
11460 On ch=2 n=75 v=110
11460 On ch=2 n=77 v=110
11460 On ch=2 n=79 v=110
11519 On ch=2 n=79 v=0
11519 On ch=2 n=77 v=0
11519 On ch=2 n=75 v=0
11520 On ch=2 n=39 v=110
11520 On ch=2 n=46 v=110
11579 On ch=2 n=46 v=0
11579 On ch=2 n=39 v=0
11580 On ch=2 n=75 v=110
11580 On ch=2 n=77 v=110
11580 On ch=2 n=79 v=110
11639 On ch=2 n=79 v=0
11639 On ch=2 n=77 v=0
11639 On ch=2 n=75 v=0
11640 On ch=2 n=36 v=110
11640 On ch=2 n=43 v=110
11699 On ch=2 n=43 v=0
11699 On ch=2 n=36 v=0
11700 On ch=2 n=75 v=110
11700 On ch=2 n=77 v=110
11700 On ch=2 n=79 v=110
11759 On ch=2 n=79 v=0
11759 On ch=2 n=77 v=0
11759 On ch=2 n=75 v=0
11760 On ch=2 n=39 v=110
11760 On ch=2 n=46 v=110
11819 On ch=2 n=46 v=0
11819 On ch=2 n=39 v=0
11820 On ch=2 n=75 v=110
11820 On ch=2 n=77 v=110
11820 On ch=2 n=79 v=110
11879 On ch=2 n=79 v=0
11879 On ch=2 n=77 v=0
11879 On ch=2 n=75 v=0
11880 On ch=2 n=36 v=110
11880 On ch=2 n=43 v=110
11939 On ch=2 n=43 v=0
11939 On ch=2 n=36 v=0
11940 On ch=2 n=75 v=110
11940 On ch=2 n=77 v=110
11940 On ch=2 n=79 v=110
11999 On ch=2 n=79 v=0
11999 On ch=2 n=77 v=0
11999 On ch=2 n=75 v=0
12000 On ch=2 n=39 v=110
12000 On ch=2 n=46 v=110
12059 On ch=2 n=46 v=0
12059 On ch=2 n=39 v=0
12060 On ch=2 n=75 v=110
12060 On ch=2 n=77 v=110
12060 On ch=2 n=79 v=110
12119 On ch=2 n=79 v=0
12119 On ch=2 n=77 v=0
12119 On ch=2 n=75 v=0
12120 On ch=2 n=36 v=110
12120 On ch=2 n=43 v=110
12179 On ch=2 n=43 v=0
12179 On ch=2 n=36 v=0
12180 On ch=2 n=75 v=110
12180 On ch=2 n=77 v=110
12180 On ch=2 n=79 v=110
12239 On ch=2 n=79 v=0
12239 On ch=2 n=77 v=0
12239 On ch=2 n=75 v=0
12240 On ch=2 n=39 v=110
12240 On ch=2 n=46 v=110
12299 On ch=2 n=46 v=0
12299 On ch=2 n=39 v=0
12300 On ch=2 n=75 v=110
12300 On ch=2 n=77 v=110
12300 On ch=2 n=79 v=110
12359 On ch=2 n=79 v=0
12359 On ch=2 n=77 v=0
12359 On ch=2 n=75 v=0
12360 On ch=2 n=36 v=110
12360 On ch=2 n=43 v=110
12419 On ch=2 n=43 v=0
12419 On ch=2 n=36 v=0
12420 On ch=2 n=75 v=110
12420 On ch=2 n=77 v=110
12420 On ch=2 n=79 v=110
12479 On ch=2 n=79 v=0
12479 On ch=2 n=77 v=0
12479 On ch=2 n=75 v=0
12480 On ch=2 n=39 v=110
12480 On ch=2 n=46 v=110
12539 On ch=2 n=46 v=0
12539 On ch=2 n=39 v=0
12540 On ch=2 n=75 v=110
12540 On ch=2 n=77 v=110
12540 On ch=2 n=79 v=110
12599 On ch=2 n=79 v=0
12599 On ch=2 n=77 v=0
12599 On ch=2 n=75 v=0
12600 On ch=2 n=36 v=110
12600 On ch=2 n=43 v=110
12659 On ch=2 n=43 v=0
12659 On ch=2 n=36 v=0
12660 On ch=2 n=75 v=110
12660 On ch=2 n=77 v=110
12660 On ch=2 n=79 v=110
12719 On ch=2 n=79 v=0
12719 On ch=2 n=77 v=0
12719 On ch=2 n=75 v=0
12720 On ch=2 n=39 v=110
12720 On ch=2 n=46 v=110
12779 On ch=2 n=46 v=0
12779 On ch=2 n=39 v=0
12780 On ch=2 n=75 v=110
12780 On ch=2 n=77 v=110
12780 On ch=2 n=79 v=110
12839 On ch=2 n=79 v=0
12839 On ch=2 n=77 v=0
12839 On ch=2 n=75 v=0
12840 On ch=2 n=36 v=110
12840 On ch=2 n=43 v=110
12899 On ch=2 n=43 v=0
12899 On ch=2 n=36 v=0
12900 On ch=2 n=75 v=110
12900 On ch=2 n=77 v=110
12900 On ch=2 n=79 v=110
12959 On ch=2 n=79 v=0
12959 On ch=2 n=77 v=0
12959 On ch=2 n=75 v=0
12960 On ch=2 n=39 v=110
12960 On ch=2 n=46 v=110
13019 On ch=2 n=46 v=0
13019 On ch=2 n=39 v=0
13020 On ch=2 n=75 v=110
13020 On ch=2 n=77 v=110
13020 On ch=2 n=79 v=110
13079 On ch=2 n=79 v=0
13079 On ch=2 n=77 v=0
13079 On ch=2 n=75 v=0
13080 On ch=2 n=36 v=110
13080 On ch=2 n=43 v=110
13139 On ch=2 n=43 v=0
13139 On ch=2 n=36 v=0
13140 On ch=2 n=75 v=110
13140 On ch=2 n=77 v=110
13140 On ch=2 n=79 v=110
13199 On ch=2 n=79 v=0
13199 On ch=2 n=77 v=0
13199 On ch=2 n=75 v=0
13200 On ch=2 n=39 v=110
13200 On ch=2 n=46 v=110
13259 On ch=2 n=46 v=0
13259 On ch=2 n=39 v=0
13260 On ch=2 n=75 v=110
13289 On ch=2 n=75 v=0
13290 On ch=2 n=79 v=110
13319 On ch=2 n=79 v=0
13320 On ch=2 n=75 v=110
13379 On ch=2 n=75 v=0
13380 On ch=2 n=74 v=110
13439 On ch=2 n=74 v=0
13440 On ch=2 n=63 v=110
13500 On ch=2 n=63 v=110
13500 On ch=2 n=67 v=110
13500 On ch=2 n=70 v=110
13540 On ch=2 n=63 v=0
13559 On ch=2 n=63 v=0
13559 On ch=2 n=67 v=0
13559 On ch=2 n=70 v=0
13560 On ch=2 n=62 v=110
13620 On ch=2 n=63 v=110
13620 On ch=2 n=67 v=110
13620 On ch=2 n=70 v=110
13660 On ch=2 n=62 v=0
13679 On ch=2 n=63 v=0
13679 On ch=2 n=67 v=0
13679 On ch=2 n=70 v=0
13680 On ch=2 n=61 v=110
13740 On ch=2 n=63 v=110
13740 On ch=2 n=67 v=110
13740 On ch=2 n=70 v=110
13780 On ch=2 n=61 v=0
13799 On ch=2 n=63 v=0
13799 On ch=2 n=67 v=0
13799 On ch=2 n=70 v=0
13800 On ch=2 n=60 v=110
13860 On ch=2 n=63 v=110
13860 On ch=2 n=67 v=110
13860 On ch=2 n=70 v=110
13900 On ch=2 n=60 v=0
13919 On ch=2 n=63 v=0
13919 On ch=2 n=67 v=0
13919 On ch=2 n=70 v=0
13920 On ch=2 n=59 v=110
13980 On ch=2 n=63 v=110
13980 On ch=2 n=67 v=110
13980 On ch=2 n=70 v=110
14020 On ch=2 n=59 v=0
14039 On ch=2 n=63 v=0
14039 On ch=2 n=67 v=0
14039 On ch=2 n=70 v=0
14040 On ch=2 n=58 v=110
14100 On ch=2 n=63 v=110
14100 On ch=2 n=67 v=110
14100 On ch=2 n=70 v=110
14140 On ch=2 n=58 v=0
14159 On ch=2 n=63 v=0
14159 On ch=2 n=67 v=0
14159 On ch=2 n=70 v=0
14160 On ch=2 n=55 v=110
14219 On ch=2 n=55 v=0
14220 On ch=2 n=63 v=110
14220 On ch=2 n=67 v=110
14220 On ch=2 n=70 v=110
14220 On ch=2 n=53 v=110
14279 On ch=2 n=53 v=0
14279 On ch=2 n=63 v=0
14279 On ch=2 n=67 v=0
14279 On ch=2 n=70 v=0
14280 On ch=2 n=63 v=110
14280 On ch=2 n=67 v=110
14280 On ch=2 n=70 v=110
14280 On ch=2 n=51 v=110
14380 On ch=2 n=51 v=0
14380 On ch=2 n=63 v=0
14380 On ch=2 n=67 v=0
14380 On ch=2 n=70 v=0
14400 On ch=2 n=51 v=110
14460 On ch=2 n=51 v=110
14460 On ch=2 n=55 v=110
14460 On ch=2 n=58 v=110
14500 On ch=2 n=51 v=0
14519 On ch=2 n=51 v=0
14519 On ch=2 n=55 v=0
14519 On ch=2 n=58 v=0
14520 On ch=2 n=50 v=110
14580 On ch=2 n=51 v=110
14580 On ch=2 n=55 v=110
14580 On ch=2 n=58 v=110
14620 On ch=2 n=50 v=0
14639 On ch=2 n=51 v=0
14639 On ch=2 n=55 v=0
14639 On ch=2 n=58 v=0
14640 On ch=2 n=49 v=110
14700 On ch=2 n=51 v=110
14700 On ch=2 n=55 v=110
14700 On ch=2 n=58 v=110
14740 On ch=2 n=49 v=0
14759 On ch=2 n=51 v=0
14759 On ch=2 n=55 v=0
14759 On ch=2 n=58 v=0
14760 On ch=2 n=48 v=110
14820 On ch=2 n=51 v=110
14820 On ch=2 n=55 v=110
14820 On ch=2 n=58 v=110
14860 On ch=2 n=48 v=0
14879 On ch=2 n=51 v=0
14879 On ch=2 n=55 v=0
14879 On ch=2 n=58 v=0
14880 On ch=2 n=47 v=110
14939 On ch=2 n=47 v=0
14940 On ch=2 n=51 v=110
14940 On ch=2 n=55 v=110
14940 On ch=2 n=58 v=110
14940 On ch=2 n=46 v=110
14999 On ch=2 n=46 v=0
14999 On ch=2 n=51 v=0
14999 On ch=2 n=55 v=0
14999 On ch=2 n=58 v=0
15000 On ch=2 n=43 v=110
15059 On ch=2 n=43 v=0
15060 On ch=2 n=51 v=110
15060 On ch=2 n=55 v=110
15060 On ch=2 n=58 v=110
15060 On ch=2 n=41 v=110
15119 On ch=2 n=41 v=0
15119 On ch=2 n=51 v=0
15119 On ch=2 n=55 v=0
15119 On ch=2 n=58 v=0
15120 On ch=2 n=51 v=110
15120 On ch=2 n=55 v=110
15120 On ch=2 n=58 v=110
15120 On ch=2 n=39 v=110
15220 On ch=2 n=39 v=0
15220 On ch=2 n=51 v=0
15220 On ch=2 n=55 v=0
15220 On ch=2 n=58 v=0
15240 On ch=2 n=31 v=110
15299 On ch=2 n=31 v=0
15360 On ch=2 n=63 v=110
15360 On ch=2 n=51 v=110
15419 On ch=2 n=51 v=0
15419 On ch=2 n=63 v=0
15420 On ch=2 n=65 v=110
15420 On ch=2 n=53 v=110
15449 On ch=2 n=53 v=0
15449 On ch=2 n=65 v=0
15450 On ch=2 n=67 v=110
15450 On ch=2 n=55 v=110
15479 On ch=2 n=55 v=0
15479 On ch=2 n=67 v=0
15480 On ch=2 n=70 v=110
15480 On ch=2 n=58 v=110
15539 On ch=2 n=58 v=0
15539 On ch=2 n=70 v=0
15540 On ch=2 n=67 v=110
15540 On ch=2 n=55 v=110
15569 On ch=2 n=55 v=0
15569 On ch=2 n=67 v=0
15570 On ch=2 n=65 v=110
15570 On ch=2 n=53 v=110
15599 On ch=2 n=53 v=0
15599 On ch=2 n=65 v=0
15600 On ch=2 n=63 v=110
15600 On ch=2 n=51 v=110
15659 On ch=2 n=51 v=0
15659 On ch=2 n=63 v=0
15660 On ch=2 n=65 v=110
15660 On ch=2 n=53 v=110
15719 On ch=2 n=53 v=0
15719 On ch=2 n=65 v=0
15720 On ch=2 n=67 v=110
15720 On ch=2 n=55 v=110
15779 On ch=2 n=55 v=0
15779 On ch=2 n=67 v=0
15780 On ch=2 n=70 v=110
15780 On ch=2 n=58 v=110
15839 On ch=2 n=58 v=0
15839 On ch=2 n=70 v=0
15840 On ch=2 n=60 v=110
15840 On ch=2 n=63 v=110
15840 On ch=2 n=65 v=110
15840 On ch=2 n=56 v=110
15940 On ch=2 n=56 v=0
15940 On ch=2 n=60 v=0
15940 On ch=2 n=63 v=0
15940 On ch=2 n=65 v=0
15960 On ch=2 n=60 v=110
15960 On ch=2 n=63 v=110
15960 On ch=2 n=65 v=110
15960 On ch=2 n=56 v=110
16060 On ch=2 n=56 v=0
16060 On ch=2 n=60 v=0
16060 On ch=2 n=63 v=0
16060 On ch=2 n=65 v=0
16080 On ch=2 n=58 v=110
16080 On ch=2 n=63 v=110
16080 On ch=2 n=55 v=110
16180 On ch=2 n=55 v=0
16180 On ch=2 n=63 v=0
16180 On ch=2 n=58 v=0
16200 On ch=2 n=39 v=110
16200 On ch=2 n=51 v=110
16300 On ch=2 n=51 v=0
16300 On ch=2 n=39 v=0
16320 On ch=2 n=81 v=110
16320 On ch=2 n=82 v=110
16379 On ch=2 n=82 v=0
16379 On ch=2 n=81 v=0
16380 On ch=2 n=72 v=110
16380 On ch=2 n=75 v=110
16409 On ch=2 n=75 v=0
16409 On ch=2 n=72 v=0
16410 On ch=2 n=81 v=110
16410 On ch=2 n=82 v=110
16439 On ch=2 n=82 v=0
16439 On ch=2 n=81 v=0
16440 On ch=2 n=72 v=110
16440 On ch=2 n=75 v=110
16499 On ch=2 n=75 v=0
16499 On ch=2 n=72 v=0
16500 On ch=2 n=69 v=110
16500 On ch=2 n=70 v=110
16559 On ch=2 n=70 v=0
16559 On ch=2 n=69 v=0
16560 On ch=2 n=60 v=110
16560 On ch=2 n=63 v=110
16619 On ch=2 n=63 v=0
16619 On ch=2 n=60 v=0
16620 On ch=2 n=57 v=110
16620 On ch=2 n=58 v=110
16679 On ch=2 n=58 v=0
16679 On ch=2 n=57 v=0
16680 On ch=2 n=39 v=110
16680 On ch=2 n=51 v=110
16780 On ch=2 n=51 v=0
16780 On ch=2 n=39 v=0
16800 On ch=2 n=81 v=110
16800 On ch=2 n=82 v=110
16859 On ch=2 n=82 v=0
16859 On ch=2 n=81 v=0
16860 On ch=2 n=72 v=110
16860 On ch=2 n=75 v=110
16889 On ch=2 n=75 v=0
16889 On ch=2 n=72 v=0
16890 On ch=2 n=81 v=110
16890 On ch=2 n=82 v=110
16919 On ch=2 n=82 v=0
16919 On ch=2 n=81 v=0
16920 On ch=2 n=72 v=110
16920 On ch=2 n=75 v=110
16979 On ch=2 n=75 v=0
16979 On ch=2 n=72 v=0
16980 On ch=2 n=69 v=110
16980 On ch=2 n=70 v=110
17039 On ch=2 n=70 v=0
17039 On ch=2 n=69 v=0
17040 On ch=2 n=60 v=110
17040 On ch=2 n=63 v=110
17099 On ch=2 n=63 v=0
17099 On ch=2 n=60 v=0
17100 On ch=2 n=57 v=110
17100 On ch=2 n=58 v=110
17159 On ch=2 n=58 v=0
17159 On ch=2 n=57 v=0
17160 On ch=2 n=39 v=110
17160 On ch=2 n=51 v=110
17260 On ch=2 n=51 v=0
17260 On ch=2 n=39 v=0
17280 On ch=2 n=81 v=110
17280 On ch=2 n=82 v=110
17339 On ch=2 n=82 v=0
17339 On ch=2 n=81 v=0
17340 On ch=2 n=72 v=110
17340 On ch=2 n=75 v=110
17399 On ch=2 n=75 v=0
17399 On ch=2 n=72 v=0
17400 On ch=2 n=69 v=110
17400 On ch=2 n=70 v=110
17459 On ch=2 n=70 v=0
17459 On ch=2 n=69 v=0
17460 On ch=2 n=60 v=110
17460 On ch=2 n=63 v=110
17519 On ch=2 n=63 v=0
17519 On ch=2 n=60 v=0
17520 On ch=2 n=81 v=110
17520 On ch=2 n=82 v=110
17579 On ch=2 n=82 v=0
17579 On ch=2 n=81 v=0
17580 On ch=2 n=72 v=110
17580 On ch=2 n=75 v=110
17639 On ch=2 n=75 v=0
17639 On ch=2 n=72 v=0
17640 On ch=2 n=69 v=110
17640 On ch=2 n=70 v=110
17699 On ch=2 n=70 v=0
17699 On ch=2 n=69 v=0
17700 On ch=2 n=60 v=110
17700 On ch=2 n=63 v=110
17759 On ch=2 n=63 v=0
17759 On ch=2 n=60 v=0
17760 On ch=2 n=81 v=110
17760 On ch=2 n=82 v=110
17819 On ch=2 n=82 v=0
17819 On ch=2 n=81 v=0
17820 On ch=2 n=72 v=110
17820 On ch=2 n=75 v=110
17849 On ch=2 n=75 v=0
17849 On ch=2 n=72 v=0
17850 On ch=2 n=81 v=110
17850 On ch=2 n=82 v=110
17879 On ch=2 n=82 v=0
17879 On ch=2 n=81 v=0
17880 On ch=2 n=72 v=110
17880 On ch=2 n=75 v=110
17939 On ch=2 n=75 v=0
17939 On ch=2 n=72 v=0
17940 On ch=2 n=81 v=110
17940 On ch=2 n=82 v=110
17999 On ch=2 n=82 v=0
17999 On ch=2 n=81 v=0
18000 On ch=2 n=72 v=110
18000 On ch=2 n=75 v=110
18059 On ch=2 n=75 v=0
18059 On ch=2 n=72 v=0
18060 On ch=2 n=72 v=110
18060 On ch=2 n=75 v=110
18119 On ch=2 n=75 v=0
18119 On ch=2 n=72 v=0
18120 On ch=2 n=60 v=110
18120 On ch=2 n=63 v=110
18179 On ch=2 n=63 v=0
18179 On ch=2 n=60 v=0
18180 On ch=2 n=72 v=110
18180 On ch=2 n=75 v=110
18239 On ch=2 n=75 v=0
18239 On ch=2 n=72 v=0
18240 On ch=2 n=60 v=110
18240 On ch=2 n=63 v=110
18299 On ch=2 n=63 v=0
18299 On ch=2 n=60 v=0
18300 On ch=2 n=69 v=110
18300 On ch=2 n=70 v=110
18359 On ch=2 n=70 v=0
18359 On ch=2 n=69 v=0
18360 On ch=2 n=60 v=110
18360 On ch=2 n=63 v=110
18419 On ch=2 n=63 v=0
18419 On ch=2 n=60 v=0
18420 On ch=2 n=57 v=110
18420 On ch=2 n=58 v=110
18479 On ch=2 n=58 v=0
18479 On ch=2 n=57 v=0
18480 On ch=2 n=39 v=110
18480 On ch=2 n=51 v=110
18580 On ch=2 n=51 v=0
18580 On ch=2 n=39 v=0
18600 On ch=2 n=39 v=110
18659 On ch=2 n=39 v=0
18659 Meta TrkEnd
TrkEnd
MTrk
0 Meta 0x21 00
0 Meta TrkName "Piccolo"
0 PrCh ch=3 p=72
0 Par ch=3 c=7 v=60
0 Par ch=3 c=10 v=120
11760 On ch=3 n=82 v=120
11880 On ch=3 n=82 v=0
11880 On ch=3 n=84 v=120
12000 On ch=3 n=84 v=0
12000 On ch=3 n=82 v=120
12210 On ch=3 n=82 v=0
12240 On ch=3 n=82 v=120
12360 On ch=3 n=82 v=0
12360 On ch=3 n=87 v=120
12419 On ch=3 n=87 v=0
12420 On ch=3 n=79 v=120
12479 On ch=3 n=79 v=0
12480 On ch=3 n=82 v=110
12539 On ch=3 n=82 v=0
12540 On ch=3 n=87 v=110
12599 On ch=3 n=87 v=0
12600 On ch=3 n=84 v=110
12659 On ch=3 n=84 v=0
12660 On ch=3 n=79 v=110
12719 On ch=3 n=79 v=0
12720 On ch=3 n=89 v=110
12779 On ch=3 n=89 v=0
12780 On ch=3 n=94 v=110
12839 On ch=3 n=94 v=0
12840 On ch=3 n=91 v=110
12899 On ch=3 n=91 v=0
12900 On ch=3 n=94 v=110
12959 On ch=3 n=94 v=0
12960 On ch=3 n=87 v=110
13020 On ch=3 n=87 v=0
13020 On ch=3 n=89 v=110
13080 On ch=3 n=89 v=0
13080 On ch=3 n=86 v=110
13140 On ch=3 n=86 v=0
13140 On ch=3 n=84 v=110
13200 On ch=3 n=84 v=0
13200 On ch=3 n=82 v=110
13440 On ch=3 n=82 v=0
13440 On ch=3 n=87 v=110
13469 On ch=3 n=87 v=0
13470 On ch=3 n=89 v=110
13499 On ch=3 n=89 v=0
13500 On ch=3 n=91 v=110
13529 On ch=3 n=91 v=0
13530 On ch=3 n=94 v=110
13559 On ch=3 n=94 v=0
13560 On ch=3 n=91 v=110
13589 On ch=3 n=91 v=0
13590 On ch=3 n=89 v=110
13619 On ch=3 n=89 v=0
13620 On ch=3 n=87 v=110
13649 On ch=3 n=87 v=0
13650 On ch=3 n=89 v=110
13679 On ch=3 n=89 v=0
13680 On ch=3 n=82 v=110
13709 On ch=3 n=82 v=0
13710 On ch=3 n=84 v=110
13739 On ch=3 n=84 v=0
13740 On ch=3 n=87 v=110
13769 On ch=3 n=87 v=0
13770 On ch=3 n=89 v=110
13799 On ch=3 n=89 v=0
13800 On ch=3 n=91 v=110
13829 On ch=3 n=91 v=0
13830 On ch=3 n=94 v=110
13859 On ch=3 n=94 v=0
13860 On ch=3 n=87 v=110
13889 On ch=3 n=87 v=0
13890 On ch=3 n=91 v=110
13919 On ch=3 n=91 v=0
13920 On ch=3 n=89 v=110
13949 On ch=3 n=89 v=0
13950 On ch=3 n=91 v=110
13979 On ch=3 n=91 v=0
13980 On ch=3 n=89 v=110
14009 On ch=3 n=89 v=0
14010 On ch=3 n=87 v=110
14039 On ch=3 n=87 v=0
14040 On ch=3 n=89 v=110
14069 On ch=3 n=89 v=0
14070 On ch=3 n=94 v=110
14099 On ch=3 n=94 v=0
14100 On ch=3 n=91 v=110
14129 On ch=3 n=91 v=0
14130 On ch=3 n=94 v=110
14159 On ch=3 n=94 v=0
14160 On ch=3 n=86 v=100
14220 On ch=3 n=86 v=0
14220 On ch=3 n=89 v=100
14280 On ch=3 n=89 v=0
14280 On ch=3 n=82 v=100
14340 On ch=3 n=82 v=0
14340 On ch=3 n=86 v=100
14370 On ch=3 n=86 v=0
14370 On ch=3 n=84 v=100
14400 On ch=3 n=84 v=0
14400 On ch=3 n=87 v=110
14520 On ch=3 n=87 v=0
14520 On ch=3 n=89 v=110
14580 On ch=3 n=89 v=0
14580 On ch=3 n=91 v=110
14640 On ch=3 n=91 v=0
14640 On ch=3 n=89 v=90
14655 On ch=3 n=89 v=0
14655 On ch=3 n=84 v=90
14875 On ch=3 n=84 v=0
14880 On ch=3 n=89 v=90
14909 On ch=3 n=89 v=0
14910 On ch=3 n=91 v=90
14939 On ch=3 n=91 v=0
14940 On ch=3 n=89 v=90
14969 On ch=3 n=89 v=0
14970 On ch=3 n=91 v=90
14999 On ch=3 n=91 v=0
15000 On ch=3 n=89 v=90
15029 On ch=3 n=89 v=0
15030 On ch=3 n=91 v=90
15059 On ch=3 n=91 v=0
15060 On ch=3 n=89 v=90
15089 On ch=3 n=89 v=0
15090 On ch=3 n=91 v=90
15119 On ch=3 n=91 v=0
15120 On ch=3 n=89 v=110
15180 On ch=3 n=89 v=0
15180 On ch=3 n=94 v=110
15240 On ch=3 n=94 v=0
15240 On ch=3 n=91 v=110
15300 On ch=3 n=91 v=0
15300 On ch=3 n=84 v=110
15360 On ch=3 n=84 v=0
15360 On ch=3 n=94 v=90
15389 On ch=3 n=94 v=0
15390 On ch=3 n=96 v=90
15419 On ch=3 n=96 v=0
15420 On ch=3 n=94 v=90
15449 On ch=3 n=94 v=0
15450 On ch=3 n=96 v=90
15479 On ch=3 n=96 v=0
15480 On ch=3 n=94 v=90
15509 On ch=3 n=94 v=0
15510 On ch=3 n=96 v=90
15539 On ch=3 n=96 v=0
15540 On ch=3 n=94 v=90
15569 On ch=3 n=94 v=0
15570 On ch=3 n=96 v=90
15599 On ch=3 n=96 v=0
15600 On ch=3 n=86 v=110
15660 On ch=3 n=86 v=0
15660 On ch=3 n=89 v=110
15720 On ch=3 n=89 v=0
15720 On ch=3 n=82 v=110
15780 On ch=3 n=82 v=0
15780 On ch=3 n=86 v=110
15810 On ch=3 n=86 v=0
15810 On ch=3 n=84 v=110
15840 On ch=3 n=84 v=0
15840 On ch=3 n=82 v=90
15870 On ch=3 n=82 v=0
15870 On ch=3 n=84 v=90
15900 On ch=3 n=84 v=0
15900 On ch=3 n=82 v=90
15930 On ch=3 n=82 v=0
15930 On ch=3 n=84 v=90
15960 On ch=3 n=84 v=0
15960 On ch=3 n=82 v=90
15990 On ch=3 n=82 v=0
15990 On ch=3 n=84 v=90
16020 On ch=3 n=84 v=0
16020 On ch=3 n=82 v=90
16050 On ch=3 n=82 v=0
16050 On ch=3 n=84 v=90
16080 On ch=3 n=84 v=0
16080 On ch=3 n=87 v=110
16290 On ch=3 n=87 v=0
16320 On ch=3 n=93 v=110
16334 On ch=3 n=93 v=0
16335 On ch=3 n=94 v=110
16349 On ch=3 n=94 v=0
16350 On ch=3 n=93 v=110
16364 On ch=3 n=93 v=0
16365 On ch=3 n=94 v=110
16379 On ch=3 n=94 v=0
16380 On ch=3 n=93 v=110
16394 On ch=3 n=93 v=0
16395 On ch=3 n=94 v=110
16409 On ch=3 n=94 v=0
16410 On ch=3 n=93 v=110
16424 On ch=3 n=93 v=0
16425 On ch=3 n=94 v=110
16439 On ch=3 n=94 v=0
16440 On ch=3 n=93 v=110
16454 On ch=3 n=93 v=0
16455 On ch=3 n=94 v=110
16469 On ch=3 n=94 v=0
16470 On ch=3 n=93 v=110
16484 On ch=3 n=93 v=0
16485 On ch=3 n=94 v=110
16499 On ch=3 n=94 v=0
16500 On ch=3 n=93 v=110
16514 On ch=3 n=93 v=0
16515 On ch=3 n=94 v=110
16529 On ch=3 n=94 v=0
16530 On ch=3 n=93 v=110
16544 On ch=3 n=93 v=0
16545 On ch=3 n=94 v=110
16559 On ch=3 n=94 v=0
16560 On ch=3 n=87 v=110
16574 On ch=3 n=87 v=0
16575 On ch=3 n=89 v=110
16589 On ch=3 n=89 v=0
16590 On ch=3 n=87 v=110
16604 On ch=3 n=87 v=0
16605 On ch=3 n=89 v=110
16619 On ch=3 n=89 v=0
16620 On ch=3 n=87 v=110
16634 On ch=3 n=87 v=0
16635 On ch=3 n=89 v=110
16649 On ch=3 n=89 v=0
16650 On ch=3 n=87 v=110
16664 On ch=3 n=87 v=0
16665 On ch=3 n=89 v=110
16679 On ch=3 n=89 v=0
16680 On ch=3 n=87 v=110
16694 On ch=3 n=87 v=0
16695 On ch=3 n=89 v=110
16709 On ch=3 n=89 v=0
16710 On ch=3 n=87 v=110
16724 On ch=3 n=87 v=0
16725 On ch=3 n=89 v=110
16739 On ch=3 n=89 v=0
16740 On ch=3 n=87 v=110
16754 On ch=3 n=87 v=0
16755 On ch=3 n=89 v=110
16769 On ch=3 n=89 v=0
16770 On ch=3 n=87 v=110
16784 On ch=3 n=87 v=0
16785 On ch=3 n=89 v=110
16799 On ch=3 n=89 v=0
16800 On ch=3 n=93 v=110
16814 On ch=3 n=93 v=0
16815 On ch=3 n=94 v=110
16829 On ch=3 n=94 v=0
16830 On ch=3 n=93 v=110
16844 On ch=3 n=93 v=0
16845 On ch=3 n=94 v=110
16859 On ch=3 n=94 v=0
16860 On ch=3 n=93 v=110
16874 On ch=3 n=93 v=0
16875 On ch=3 n=94 v=110
16889 On ch=3 n=94 v=0
16890 On ch=3 n=93 v=110
16904 On ch=3 n=93 v=0
16905 On ch=3 n=94 v=110
16919 On ch=3 n=94 v=0
16920 On ch=3 n=93 v=110
16934 On ch=3 n=93 v=0
16935 On ch=3 n=94 v=110
16949 On ch=3 n=94 v=0
16950 On ch=3 n=93 v=110
16964 On ch=3 n=93 v=0
16965 On ch=3 n=94 v=110
16979 On ch=3 n=94 v=0
16980 On ch=3 n=93 v=110
16994 On ch=3 n=93 v=0
16995 On ch=3 n=94 v=110
17009 On ch=3 n=94 v=0
17010 On ch=3 n=93 v=110
17024 On ch=3 n=93 v=0
17025 On ch=3 n=94 v=110
17039 On ch=3 n=94 v=0
17040 On ch=3 n=87 v=110
17054 On ch=3 n=87 v=0
17055 On ch=3 n=89 v=110
17069 On ch=3 n=89 v=0
17070 On ch=3 n=87 v=110
17084 On ch=3 n=87 v=0
17085 On ch=3 n=89 v=110
17099 On ch=3 n=89 v=0
17100 On ch=3 n=87 v=110
17114 On ch=3 n=87 v=0
17115 On ch=3 n=89 v=110
17129 On ch=3 n=89 v=0
17130 On ch=3 n=87 v=110
17144 On ch=3 n=87 v=0
17145 On ch=3 n=89 v=110
17159 On ch=3 n=89 v=0
17160 On ch=3 n=87 v=110
17174 On ch=3 n=87 v=0
17175 On ch=3 n=89 v=110
17189 On ch=3 n=89 v=0
17190 On ch=3 n=87 v=110
17204 On ch=3 n=87 v=0
17205 On ch=3 n=89 v=110
17219 On ch=3 n=89 v=0
17220 On ch=3 n=87 v=110
17234 On ch=3 n=87 v=0
17235 On ch=3 n=89 v=110
17249 On ch=3 n=89 v=0
17250 On ch=3 n=87 v=110
17264 On ch=3 n=87 v=0
17265 On ch=3 n=89 v=110
17279 On ch=3 n=89 v=0
17280 On ch=3 n=94 v=110
17339 On ch=3 n=94 v=0
17340 On ch=3 n=99 v=110
17399 On ch=3 n=99 v=0
17400 On ch=3 n=96 v=110
17459 On ch=3 n=96 v=0
17460 On ch=3 n=91 v=110
17519 On ch=3 n=91 v=0
17520 On ch=3 n=89 v=110
17579 On ch=3 n=89 v=0
17580 On ch=3 n=94 v=110
17639 On ch=3 n=94 v=0
17640 On ch=3 n=92 v=110
17699 On ch=3 n=92 v=0
17700 On ch=3 n=91 v=110
17759 On ch=3 n=91 v=0
17760 On ch=3 n=89 v=110
17819 On ch=3 n=89 v=0
17820 On ch=3 n=94 v=110
17879 On ch=3 n=94 v=0
17880 On ch=3 n=91 v=110
17909 On ch=3 n=91 v=0
17910 On ch=3 n=94 v=110
17939 On ch=3 n=94 v=0
17940 On ch=3 n=91 v=110
17969 On ch=3 n=91 v=0
17970 On ch=3 n=89 v=110
17999 On ch=3 n=89 v=0
18000 On ch=3 n=87 v=110
18059 On ch=3 n=87 v=0
18060 On ch=3 n=91 v=110
18119 On ch=3 n=91 v=0
18120 On ch=3 n=89 v=110
18149 On ch=3 n=89 v=0
18150 On ch=3 n=91 v=110
18179 On ch=3 n=91 v=0
18180 On ch=3 n=89 v=110
18209 On ch=3 n=89 v=0
18210 On ch=3 n=86 v=110
18239 On ch=3 n=86 v=0
18240 On ch=3 n=84 v=110
18269 On ch=3 n=84 v=0
18270 On ch=3 n=87 v=110
18299 On ch=3 n=87 v=0
18300 On ch=3 n=91 v=110
18329 On ch=3 n=91 v=0
18330 On ch=3 n=94 v=110
18359 On ch=3 n=94 v=0
18360 On ch=3 n=87 v=110
18389 On ch=3 n=87 v=0
18390 On ch=3 n=89 v=110
18419 On ch=3 n=89 v=0
18420 On ch=3 n=86 v=110
18449 On ch=3 n=86 v=0
18450 On ch=3 n=84 v=110
18479 On ch=3 n=84 v=0
18480 On ch=3 n=87 v=110
18580 On ch=3 n=87 v=0
18580 Meta TrkEnd
TrkEnd
MTrk
0 Meta 0x21 00
0 Meta TrkName "percussion"
0 PrCh ch=10 p=0
0 Par ch=10 c=7 v=90
0 Par ch=10 c=10 v=64
0 On ch=10 n=63 v=90
0 On ch=10 n=52 v=110
60 On ch=10 n=52 v=0
60 On ch=10 n=63 v=0
60 On ch=10 n=52 v=110
90 On ch=10 n=52 v=0
90 On ch=10 n=63 v=90
120 On ch=10 n=63 v=0
120 On ch=10 n=52 v=110
180 On ch=10 n=52 v=0
180 On ch=10 n=63 v=90
240 On ch=10 n=63 v=0
240 On ch=10 n=52 v=110
300 On ch=10 n=52 v=0
300 On ch=10 n=63 v=90
360 On ch=10 n=63 v=0
360 On ch=10 n=52 v=110
360 On ch=10 n=66 v=90
480 On ch=10 n=66 v=0
480 On ch=10 n=52 v=0
480 On ch=10 n=63 v=90
480 On ch=10 n=52 v=110
540 On ch=10 n=52 v=0
540 On ch=10 n=63 v=0
540 On ch=10 n=52 v=110
540 On ch=10 n=63 v=90
570 On ch=10 n=63 v=0
570 On ch=10 n=52 v=0
570 On ch=10 n=63 v=90
570 On ch=10 n=52 v=110
600 On ch=10 n=52 v=0
600 On ch=10 n=63 v=0
600 On ch=10 n=52 v=110
600 On ch=10 n=63 v=90
660 On ch=10 n=63 v=0
660 On ch=10 n=52 v=0
660 On ch=10 n=63 v=90
660 On ch=10 n=52 v=110
720 On ch=10 n=52 v=0
720 On ch=10 n=63 v=0
720 On ch=10 n=52 v=110
720 On ch=10 n=63 v=90
780 On ch=10 n=63 v=0
780 On ch=10 n=52 v=0
780 On ch=10 n=63 v=90
780 On ch=10 n=52 v=110
840 On ch=10 n=52 v=0
840 On ch=10 n=63 v=0
840 On ch=10 n=52 v=110
840 On ch=10 n=66 v=90
960 On ch=10 n=66 v=0
960 On ch=10 n=52 v=0
3360 On ch=10 n=63 v=90
3360 On ch=10 n=52 v=110
3480 On ch=10 n=52 v=0
3480 On ch=10 n=63 v=0
3480 On ch=10 n=63 v=90
3480 On ch=10 n=52 v=110
3600 On ch=10 n=52 v=0
3600 On ch=10 n=63 v=0
3600 On ch=10 n=63 v=90
3600 On ch=10 n=52 v=110
3720 On ch=10 n=52 v=0
3720 On ch=10 n=63 v=0
3720 On ch=10 n=63 v=90
3720 On ch=10 n=52 v=110
3840 On ch=10 n=52 v=0
3840 On ch=10 n=63 v=0
5580 On ch=10 n=52 v=100
5580 On ch=10 n=63 v=80
5640 On ch=10 n=63 v=0
5640 On ch=10 n=52 v=0
5640 On ch=10 n=52 v=100
5640 On ch=10 n=63 v=80
5700 On ch=10 n=63 v=0
5700 On ch=10 n=52 v=0
5700 On ch=10 n=52 v=100
5700 On ch=10 n=63 v=80
5760 On ch=10 n=63 v=0
5760 On ch=10 n=52 v=0
6540 On ch=10 n=52 v=110
6540 On ch=10 n=63 v=90
6600 On ch=10 n=63 v=0
6600 On ch=10 n=52 v=0
6600 On ch=10 n=52 v=110
6600 On ch=10 n=63 v=90
6660 On ch=10 n=63 v=0
6660 On ch=10 n=52 v=0
6660 On ch=10 n=52 v=110
6660 On ch=10 n=63 v=90
6720 On ch=10 n=63 v=0
6720 On ch=10 n=52 v=0
7560 On ch=10 n=66 v=100
7560 On ch=10 n=57 v=100
7680 On ch=10 n=57 v=0
7680 On ch=10 n=66 v=0
8520 On ch=10 n=66 v=120
8640 On ch=10 n=66 v=0
8640 PrCh ch=10 p=48
8640 On ch=10 n=40 v=50
8654 On ch=10 n=40 v=0
8655 On ch=10 n=40 v=50
8669 On ch=10 n=40 v=0
8670 On ch=10 n=40 v=50
8684 On ch=10 n=40 v=0
8685 On ch=10 n=40 v=50
8699 On ch=10 n=40 v=0
8700 On ch=10 n=40 v=50
8714 On ch=10 n=40 v=0
8715 On ch=10 n=40 v=50
8729 On ch=10 n=40 v=0
8730 On ch=10 n=40 v=50
8744 On ch=10 n=40 v=0
8745 On ch=10 n=40 v=50
8759 On ch=10 n=40 v=0
8760 On ch=10 n=40 v=50
8774 On ch=10 n=40 v=0
8775 On ch=10 n=40 v=50
8789 On ch=10 n=40 v=0
8790 On ch=10 n=40 v=50
8804 On ch=10 n=40 v=0
8805 On ch=10 n=40 v=50
8819 On ch=10 n=40 v=0
8820 On ch=10 n=40 v=50
8834 On ch=10 n=40 v=0
8835 On ch=10 n=40 v=50
8849 On ch=10 n=40 v=0
8850 On ch=10 n=40 v=50
8864 On ch=10 n=40 v=0
8865 On ch=10 n=40 v=50
8879 On ch=10 n=40 v=0
8880 PrCh ch=10 p=0
8880 On ch=10 n=52 v=110
8940 On ch=10 n=52 v=0
8940 On ch=10 n=63 v=90
9000 On ch=10 n=63 v=0
9000 On ch=10 n=52 v=110
9060 On ch=10 n=52 v=0
9120 PrCh ch=10 p=48
9120 On ch=10 n=40 v=50
9134 On ch=10 n=40 v=0
9135 On ch=10 n=40 v=50
9149 On ch=10 n=40 v=0
9150 On ch=10 n=40 v=50
9164 On ch=10 n=40 v=0
9165 On ch=10 n=40 v=50
9179 On ch=10 n=40 v=0
9180 On ch=10 n=40 v=50
9194 On ch=10 n=40 v=0
9195 On ch=10 n=40 v=50
9209 On ch=10 n=40 v=0
9210 On ch=10 n=40 v=50
9224 On ch=10 n=40 v=0
9225 On ch=10 n=40 v=50
9239 On ch=10 n=40 v=0
9240 On ch=10 n=40 v=50
9254 On ch=10 n=40 v=0
9255 On ch=10 n=40 v=50
9269 On ch=10 n=40 v=0
9270 On ch=10 n=40 v=50
9284 On ch=10 n=40 v=0
9285 On ch=10 n=40 v=50
9299 On ch=10 n=40 v=0
9300 On ch=10 n=40 v=50
9314 On ch=10 n=40 v=0
9315 On ch=10 n=40 v=50
9329 On ch=10 n=40 v=0
9330 On ch=10 n=40 v=50
9344 On ch=10 n=40 v=0
9345 On ch=10 n=40 v=50
9359 On ch=10 n=40 v=0
9360 PrCh ch=10 p=0
9360 On ch=10 n=52 v=110
9420 On ch=10 n=52 v=0
9420 On ch=10 n=63 v=90
9480 On ch=10 n=63 v=0
9480 On ch=10 n=52 v=110
9540 On ch=10 n=52 v=0
9600 PrCh ch=10 p=48
9600 On ch=10 n=40 v=50
9614 On ch=10 n=40 v=0
9615 On ch=10 n=40 v=50
9629 On ch=10 n=40 v=0
9630 On ch=10 n=40 v=50
9644 On ch=10 n=40 v=0
9645 On ch=10 n=40 v=50
9659 On ch=10 n=40 v=0
9660 On ch=10 n=40 v=50
9674 On ch=10 n=40 v=0
9675 On ch=10 n=40 v=50
9689 On ch=10 n=40 v=0
9690 On ch=10 n=40 v=50
9704 On ch=10 n=40 v=0
9705 On ch=10 n=40 v=50
9719 On ch=10 n=40 v=0
9720 PrCh ch=10 p=0
9720 On ch=10 n=66 v=100
9840 On ch=10 n=66 v=0
9840 PrCh ch=10 p=48
9840 On ch=10 n=40 v=50
9854 On ch=10 n=40 v=0
9855 On ch=10 n=40 v=50
9869 On ch=10 n=40 v=0
9870 On ch=10 n=40 v=50
9884 On ch=10 n=40 v=0
9885 On ch=10 n=40 v=50
9899 On ch=10 n=40 v=0
9900 On ch=10 n=40 v=50
9914 On ch=10 n=40 v=0
9915 On ch=10 n=40 v=50
9929 On ch=10 n=40 v=0
9930 On ch=10 n=40 v=50
9944 On ch=10 n=40 v=0
9945 On ch=10 n=40 v=50
9959 On ch=10 n=40 v=0
9960 PrCh ch=10 p=0
9960 On ch=10 n=66 v=100
10080 On ch=10 n=66 v=0
10920 On ch=10 n=52 v=110
10920 On ch=10 n=66 v=90
11040 On ch=10 n=66 v=0
11040 On ch=10 n=52 v=0
11520 On ch=10 n=63 v=90
11520 On ch=10 n=52 v=110
11640 On ch=10 n=52 v=0
11640 On ch=10 n=63 v=0
11640 On ch=10 n=63 v=90
11640 On ch=10 n=52 v=110
11760 On ch=10 n=52 v=0
11760 On ch=10 n=63 v=0
11760 On ch=10 n=63 v=90
11760 On ch=10 n=52 v=110
11880 On ch=10 n=52 v=0
11880 On ch=10 n=63 v=0
12000 On ch=10 n=63 v=90
12000 On ch=10 n=52 v=110
12120 On ch=10 n=52 v=0
12120 On ch=10 n=63 v=0
12120 On ch=10 n=63 v=90
12120 On ch=10 n=52 v=110
12240 On ch=10 n=52 v=0
12240 On ch=10 n=63 v=0
12240 On ch=10 n=63 v=90
12240 On ch=10 n=52 v=110
12360 On ch=10 n=52 v=0
12360 On ch=10 n=63 v=0
13260 On ch=10 n=52 v=70
13320 On ch=10 n=52 v=0
13320 On ch=10 n=52 v=70
13380 On ch=10 n=52 v=0
13380 On ch=10 n=52 v=70
13440 On ch=10 n=52 v=0
14220 On ch=10 n=52 v=100
14280 On ch=10 n=52 v=0
14280 On ch=10 n=52 v=100
14340 On ch=10 n=52 v=0
14340 On ch=10 n=52 v=100
14400 On ch=10 n=52 v=0
15240 On ch=10 n=52 v=110
15360 On ch=10 n=52 v=0
16200 On ch=10 n=52 v=110
16320 On ch=10 n=52 v=0
16320 On ch=10 n=52 v=60
16350 On ch=10 n=52 v=0
16350 On ch=10 n=52 v=60
16380 On ch=10 n=52 v=0
16380 On ch=10 n=52 v=60
16410 On ch=10 n=52 v=0
16410 On ch=10 n=52 v=60
16440 On ch=10 n=52 v=0
16800 On ch=10 n=52 v=60
16830 On ch=10 n=52 v=0
16830 On ch=10 n=52 v=60
16860 On ch=10 n=52 v=0
16860 On ch=10 n=52 v=60
16890 On ch=10 n=52 v=0
16890 On ch=10 n=52 v=60
16920 On ch=10 n=52 v=0
17280 On ch=10 n=52 v=60
17310 On ch=10 n=52 v=0
17310 On ch=10 n=52 v=60
17340 On ch=10 n=52 v=0
17340 On ch=10 n=52 v=60
17370 On ch=10 n=52 v=0
17370 On ch=10 n=52 v=60
17400 On ch=10 n=52 v=0
17520 On ch=10 n=52 v=60
17550 On ch=10 n=52 v=0
17550 On ch=10 n=52 v=60
17580 On ch=10 n=52 v=0
17580 On ch=10 n=52 v=60
17610 On ch=10 n=52 v=0
17610 On ch=10 n=52 v=60
17640 On ch=10 n=52 v=0
17760 On ch=10 n=52 v=60
17790 On ch=10 n=52 v=0
17790 On ch=10 n=52 v=60
17820 On ch=10 n=52 v=0
17820 On ch=10 n=52 v=60
17850 On ch=10 n=52 v=0
17850 On ch=10 n=52 v=60
17880 On ch=10 n=52 v=0
18240 On ch=10 n=63 v=127
18300 On ch=10 n=63 v=0
18300 On ch=10 n=52 v=110
18360 On ch=10 n=52 v=0
18360 On ch=10 n=63 v=127
18418 On ch=10 n=63 v=0
18420 On ch=10 n=63 v=127
18480 On ch=10 n=63 v=0
18480 On ch=10 n=52 v=120
18480 On ch=10 n=63 v=127
18720 On ch=10 n=63 v=0
18720 On ch=10 n=52 v=0
18720 Meta TrkEnd
TrkEnd
